<svg xmlns="http://www.w3.org/2000/svg" viewBox="0 0 24.8 35.01"><defs><style>.cls-1{fill:#f9fbfd;}</style></defs><title>Asset 1</title><g id="Layer_2" data-name="Layer 2"><g id="Layer_1-2" data-name="Layer 1"><path class="cls-1" d="M6.6,20.45c0-.51,0-1,0-1.43V6.51A2.62,2.62,0,0,1,8.93,4a2.67,2.67,0,0,1,3,2.7c0,1.16,0,2.32,0,3.48v1.17A2.75,2.75,0,0,1,14.47,11a2.6,2.6,0,0,1,1.69,1.83,2.73,2.73,0,0,1,4.32,1.57l.18-.1a2.72,2.72,0,0,1,3.79.85,2.33,2.33,0,0,1,.34,1.23c0,2.42,0,4.83,0,7.25a18.9,18.9,0,0,1-.12,3,10.8,10.8,0,0,1-3,6.31,6.32,6.32,0,0,1-4.25,2,29.31,29.31,0,0,1-3.75,0,6.06,6.06,0,0,1-3.59-1.65A9.66,9.66,0,0,1,7.34,29.2a2,2,0,0,0-.28-.47A31.82,31.82,0,0,0,4.27,25.6a12.48,12.48,0,0,0-3-2A2.09,2.09,0,0,1,0,21.91,1.82,1.82,0,0,1,1.06,20a4.48,4.48,0,0,1,2.54-.5A6.4,6.4,0,0,1,6.6,20.45Zm3.78,11.66.09.09.36.32a5.49,5.49,0,0,0,3.62,1.39H17A5.27,5.27,0,0,0,20,33a7.44,7.44,0,0,0,2.17-2.33A10.79,10.79,0,0,0,23.7,25c0-2.84,0-5.69,0-8.53a1.42,1.42,0,0,0-.81-1.35,1.55,1.55,0,0,0-2.3,1.38v.63c0,.41,0,.82,0,1.22a7.09,7.09,0,0,1,0,1.22c-.1.42-.25.6-.7.58-.29,0-.48-.26-.48-.63,0-1.56,0-3.12,0-4.68a1.34,1.34,0,0,0-.49-1.09,1.57,1.57,0,0,0-1.73-.25A1.4,1.4,0,0,0,16.3,15v4.63a.59.59,0,1,1-1.18,0V13.5a1.4,1.4,0,0,0-.61-1.23,1.55,1.55,0,0,0-1.71-.12,1.4,1.4,0,0,0-.8,1.36c0,.51,0,1,0,1.54,0,1.52,0,3,0,4.54a.54.54,0,0,1-.58.61.55.55,0,0,1-.55-.62q0-4.81,0-9.61c0-.7,0-1.41,0-2.12,0-.41,0-.82,0-1.23A1.55,1.55,0,0,0,9.28,5.09,1.54,1.54,0,0,0,7.67,6.62V21.5a.55.55,0,0,1-.32.56A.52.52,0,0,1,6.74,22a7.77,7.77,0,0,0-.88-.66,5.07,5.07,0,0,0-2.95-.67,2.63,2.63,0,0,0-1.52.5.72.72,0,0,0-.26.85,1.21,1.21,0,0,0,.69.71,12.76,12.76,0,0,1,4.09,3c.67.75,1.3,1.53,2,2.28a2.54,2.54,0,0,1,.51.85A8.78,8.78,0,0,0,10.38,32.11Z"/><path class="cls-1" d="M14.62.64l.43.49-.57.48-.41-.41Z"/><path class="cls-1" d="M16.33,3.49l-.73.23-.2-.56.7-.3Z"/><path class="cls-1" d="M16.5,6.83l-.15.65-.74-.22.15-.58Z"/><path class="cls-1" d="M15.41,7.83l.71.28-.29.61-.67-.35Z"/><path class="cls-1" d="M3.24,2.48l-.64-.4L3,1.52,3.57,2Z"/><path class="cls-1" d="M15.81,2.25l-.67.37-.31-.52.63-.42Z"/><path class="cls-1" d="M15.84,4.89l-.1-.59.76-.15.1.66Z"/><path class="cls-1" d="M1.62,6V5.28l.75,0,0,.6Z"/><path class="cls-1" d="M1.81,7.28l-.13-.66.74-.11.14.58Z"/><path class="cls-1" d="M3,9.7l-.38-.56.66-.39.33.49Z"/><path class="cls-1" d="M3,3l-.23.55L2,3.3A2.31,2.31,0,0,1,2.12,3c.13-.35.14-.35.47-.18Z"/><path class="cls-1" d="M2,7.92l.72-.25L3,8.22l-.69.32Z"/><path class="cls-1" d="M15.84,6.09l0-.57h.76l0,.64Z"/><path class="cls-1" d="M1.68,4.6l.13-.66c.23.06.45.12.65.19,0,0,.07.09.06.14s0,.27-.08.44Z"/><path class="cls-1" d="M12.68,2.72l.39-.33c.11.13.21.25.3.38a.17.17,0,0,1,0,.16.47.47,0,0,1-.21.16.25.25,0,0,1-.19,0A2.5,2.5,0,0,1,12.68,2.72Z"/><path class="cls-1" d="M4.57,4.8l-.52-.1.15-.59.5.17Z"/><path class="cls-1" d="M14,3.94l-.49.18-.22-.5.47-.23Z"/><path class="cls-1" d="M13.66,4.64l.52-.1.08.59-.51,0Z"/><path class="cls-1" d="M13.85,7.52l-.48-.22.19-.51.5.16Z"/><path class="cls-1" d="M4,5.31l.52,0-.07.54L4,5.92Z"/><path class="cls-1" d="M4.92,7.46l.26.46-.42.28-.1-.12C4.4,7.64,4.4,7.64,4.92,7.46Z"/><path class="cls-1" d="M4.91,3.77l-.47-.22L4.74,3l.43.28Z"/><path class="cls-1" d="M14.28,5.75l-.07.6-.52-.09.06-.54Z"/><path class="cls-1" d="M4.7,6.94l-.5.17-.15-.58.51-.11Z"/><path class="cls-1" d="M3.94,9.72l.21.21a5.3,5.3,0,0,1-.48.47s-.19-.08-.32-.14Z"/><path class="cls-1" d="M13.6.77,13.39.59,13.83,0c.31.17.3.17.1.4-.06.06-.1.14-.16.2Z"/><path class="cls-1" d="M15.49,9.3l-.18.27-.63-.43.18-.25Z"/><path class="cls-1" d="M3.38,1,3.61.77l.52.53-.06.09L4,1.5Z"/><path class="cls-1" d="M5.12,2.52l.21-.24.37.37-.2.21Z"/><path class="cls-1" d="M13.56,8.05l-.19.27L12.94,8l.17-.24Z"/><path class="cls-1" d="M5.51,8.35l.19.22-.35.35-.24-.23Z"/><path class="cls-1" d="M12.29,2.35l-.23-.19.31-.41.26.21Z"/></g></g></svg>