<?xml version="1.0" encoding="utf-8"?>
<!-- Generator: Adobe Illustrator 23.0.6, SVG Export Plug-In . SVG Version: 6.00 Build 0)  -->
<svg version="1.1" id="Layer_1" xmlns="http://www.w3.org/2000/svg" xmlns:xlink="http://www.w3.org/1999/xlink" x="0px" y="0px"
	 viewBox="0 0 30.3 30.4" style="enable-background:new 0 0 30.3 30.4;" xml:space="preserve">
<style type="text/css">
	.st0{fill:#FFFFFF;}
</style>
<title>Asset 2</title>
<image style="display:none;overflow:visible;" width="880" height="920" xlink:href="18CAEBEF.jpg"  transform="matrix(3.562459e-02 0 0 3.562459e-02 -6.373 0)">
</image>
<g>
	<circle class="st0" cx="20.6" cy="6.2" r="2.1"/>
	<g>
		<path class="st0" d="M14.8,24.7H3.3c-0.5,0-0.9-0.4-0.9-0.9V3.2c0-0.5,0.4-0.9,0.9-0.9h20.6c0.5,0,0.9,0.4,0.9,0.9V15
			c0.7,0.2,1.3,0.4,1.9,0.8V3.2c0-1.6-1.3-2.9-2.9-2.9H3.3c-1.6,0-2.9,1.3-2.9,2.9v20.6c0,1.6,1.3,2.9,2.9,2.9h12.2
			C15.2,26,14.9,25.4,14.8,24.7z"/>
	</g>
	<g>
		<path class="st0" d="M19,15.6c-7.9,1-5.9-3.2-10.9-3.2c-5.3,0-5,10-5,10l11.4,0.2C14.6,19.6,16.4,16.9,19,15.6z"/>
	</g>
	<path class="st0" d="M22.7,15.7c-4,0-7.2,3.2-7.2,7.2c0,4,3.2,7.2,7.2,7.2s7.2-3.2,7.2-7.2C29.9,18.9,26.7,15.7,22.7,15.7z
		 M22.7,17.1c1.2,0,2.1,0.9,2.1,2.1c0,1.2-0.9,2.1-2.1,2.1c-1.2,0-2.1-0.9-2.1-2.1C20.6,18.1,21.5,17.1,22.7,17.1z M18.1,26.7
		c0-2.5,2-4.6,4.6-4.6s4.6,2,4.6,4.6H18.1z"/>
</g>
</svg>
