<svg xmlns="http://www.w3.org/2000/svg" viewBox="0 0 43.89 30.44"><defs><style>.cls-1{fill:#fff;}</style></defs><title>Asset 2</title><g id="Layer_2" data-name="Layer 2"><g id="Layer_1-2" data-name="Layer 1"><path class="cls-1" d="M23.19,26.32a2.06,2.06,0,1,0,2.06,2.06A2.06,2.06,0,0,0,23.19,26.32Z"/><path class="cls-1" d="M38,26.32A2.06,2.06,0,1,0,40,28.38,2.06,2.06,0,0,0,38,26.32Z"/><path class="cls-1" d="M40,23.49H21.3L20.19,19.1H40.11L43.89,4.46H16.51L15.38,0H8.46a.55.55,0,0,0-.52.54.55.55,0,0,0,.52.54h6.07l5.91,23.49H40a.55.55,0,0,0,0-1.1ZM29.08,18H25l-.73-5.67h4.82ZM37,5.56h5.47L41,11.23H36.27Zm3.72,6.77L39.26,18H35.4l.73-5.67ZM30.18,5.56h5.71l-.73,5.67h-5Zm0,6.77H35L34.29,18H30.18Zm-1.1-6.77v5.67h-5l-.73-5.67Zm-12.3,0h5.5L23,11.23h-4.8Zm1.71,6.77h4.66L23.88,18h-4Z"/><path class="cls-1" d="M3.79,11H14.33a.55.55,0,0,0,.55-.55.54.54,0,0,0-.55-.55H3.79a.54.54,0,0,0-.55.55A.55.55,0,0,0,3.79,11Z"/><path class="cls-1" d="M15.88,14.5a.54.54,0,0,0-.55-.55H.55A.55.55,0,0,0,0,14.5a.55.55,0,0,0,.55.55H15.33A.55.55,0,0,0,15.88,14.5Z"/><path class="cls-1" d="M16.08,17.82H5.67a.55.55,0,1,0,0,1.1H16.08a.55.55,0,0,0,0-1.1Z"/></g></g></svg>