<svg id="SvgjsSvg1024" width="288" height="288" xmlns="http://www.w3.org/2000/svg" version="1.1" xmlns:xlink="http://www.w3.org/1999/xlink" xmlns:svgjs="http://svgjs.com/svgjs"><defs id="SvgjsDefs1025"></defs><g id="SvgjsG1026"><svg xmlns="http://www.w3.org/2000/svg" width="288" height="288" version="1.0" viewBox="0 0 200 200"><g transform="matrix(.1 0 0 -.1 0 200)" fill="#ffffff" class="color000 svgShape"><path d="M542 1588c-17-17-17-1159 0-1176 17-17 899-17 916 0 17 17 17 1159 0 1176-17 17-899 17-916 0zm858-588l0-530-400 0-400 0 0 530 0 530 400 0 400 0 0-530zM136 1515c-3-9-6-243-6-520 0-535 0-532 47-523 17 3 18 31 18 528l0 525-26 3c-17 2-29-3-33-13zM277 1523c-4-3-7-240-7-525 0-467 2-519 16-525 20-7 171 65 179 86 3 8-1 21-10 30-13 14-19 13-60-7-25-12-50-22-55-22-6 0-10 161-10 440 0 279 4 440 10 440 5 0 30-10 55-22 41-20 47-21 60-7 25 25 9 42-70 82-75 37-96 43-108 30zM1613 1493c-78-40-93-58-68-82 13-14 19-13 60 7 25 12 50 22 55 22 6 0 10-161 10-440 0-279-4-440-10-440-5 0-30 10-55 22-41 20-47 21-60 7-9-9-13-22-10-30 8-21 159-93 179-86 15 6 16 56 14 529-3 604 9 553-115 491zM1807 1523c-4-3-7-240-7-525 0-471 2-519 16-525 9-3 24-2 33 4 14 9 16 63 19 509 1 274 0 509-3 522-5 21-42 31-58 15z" fill="#ffffff" class="color000 svgShape"></path></g></svg></g></svg>