<?xml version="1.0" encoding="utf-8"?>
<!-- Generator: Adobe Illustrator 23.0.6, SVG Export Plug-In . SVG Version: 6.00 Build 0)  -->
<svg version="1.1" id="Layer_1" xmlns="http://www.w3.org/2000/svg" xmlns:xlink="http://www.w3.org/1999/xlink" x="0px" y="0px"
	 viewBox="0 0 2000 419.3" style="enable-background:new 0 0 2000 419.3;" xml:space="preserve">
<style type="text/css">
	.st0{fill:#334251;}
	.st1{fill:#848484;}
</style>
<g id="Layer_4">
	<g>
		<g>
			<g>
				<g>
					<path class="st0" d="M134.8,308.2l-73.6-91.8h-0.7v91.1H13.8V110.7h46.6v80.2h0.7l70.7-80.2h59.8l-83.8,91.1L198.2,309h-63.4
						L134.8,308.2L134.8,308.2z"/>
					<path class="st0" d="M300.2,314.1c-61.9,0-107.9-42.3-107.9-104.9c0-63.4,45.9-103.5,107.9-103.5S408.1,145,408.1,208.4
						C408.1,270.3,362.2,314.1,300.2,314.1z M300.2,147.9c-33.5,0-56.8,25.5-56.8,59.8c0,35.7,23.3,61.9,56.8,61.9
						s56.8-25.5,56.8-61.9C357.1,174.1,333.8,147.9,300.2,147.9z"/>
					<path class="st0" d="M565.5,308.2l-79.4-129h-0.7l0.7,129h-45.9V110.7h54.7l79.4,129h0.7l-2.9-129H618V309h-52.5V308.2z"/>
					<path class="st0" d="M785.6,308.2l-79.4-129h-0.7l0.7,129h-45.9V110.7H715l79.4,129h0.7l-1.5-129h45.9V309h-53.9V308.2z"/>
					<path class="st0" d="M881.1,308.2V110.7h132.6v40.8H927v37.2h82.4v37.9H927v40.8h91.8v40.8L881.1,308.2L881.1,308.2
						L881.1,308.2z"/>
					<path class="st0" d="M1148.5,314.1c-61.2,0-106.4-42.3-106.4-104.2c0-63.4,46.6-104.2,107.1-104.2c27.7,0,57.6,9.5,74.3,29.2
						l-32.8,32.8c-8.7-12.4-24.8-18.2-40.1-18.2c-33.5,0-56.8,25.5-56.8,61.2c0,36.4,23.3,61.2,56.8,61.2c18.2,0,33.5-8,41.5-20.4
						l33.5,30.6C1207.6,300.2,1180.6,314.1,1148.5,314.1z"/>
					<path class="st0" d="M1347.8,150.8v157.4h-48.1V150.8h-55.4V110h158.9v40.8H1347.8z"/>
				</g>
			</g>
		</g>
	</g>
</g>
<g>
	<g>
		<path class="st1" d="M1593.9,311.1h-78.7V112.9h78.7c30.6,0,67,10.9,67,51c0,21.9-13.1,36.4-32.8,42.3v0.7
			c23.3,3.6,40.8,20.4,40.8,45.9C1669.7,295.8,1631.8,311.1,1593.9,311.1z M1585.2,150.8h-24.1v40.8h25.5c17.5,0,28.4-8,28.4-21.1
			C1615.1,155.9,1605.6,150.8,1585.2,150.8z M1587.4,226.6h-26.2v45.2h26.2c15.3,0,33.5-4.4,33.5-24.1
			C1622.4,232.4,1607.8,226.6,1587.4,226.6z"/>
		<path class="st1" d="M1701.1,311.1V112.9h48.1v198.2H1701.1z"/>
		<path class="st1" d="M1888.4,316.2c-61.9,0-107.9-42.3-107.9-104.9c0-63.4,45.9-103.5,107.9-103.5s107.9,40.1,107.9,103.5
			C1996.2,272.5,1951.1,316.2,1888.4,316.2z M1888.4,150.1c-33.5,0-56.8,25.5-56.8,59.8c0,35.7,23.3,61.9,56.8,61.9
			s56.8-25.5,56.8-61.9C1946,175.6,1921.9,150.1,1888.4,150.1z"/>
	</g>
</g>
<g id="Layer_3">
</g>
</svg>
