<?xml version="1.0" encoding="utf-8"?>
<!-- Generator: Adobe Illustrator 23.0.6, SVG Export Plug-In . SVG Version: 6.00 Build 0)  -->
<svg version="1.1" id="Layer_4" xmlns="http://www.w3.org/2000/svg" xmlns:xlink="http://www.w3.org/1999/xlink" x="0px" y="0px"
	 viewBox="0 0 312.4 65.5" style="enable-background:new 0 0 312.4 65.5;" xml:space="preserve">
<style type="text/css">
	.st0{fill:#334251;}
	.st1{fill:#848484;}
	.st2{fill:#00C3FF;stroke:#00C3FF;stroke-miterlimit:10;}
	.st3{fill:#848484;stroke:#848484;stroke-miterlimit:10;}
</style>
<g>
	<g>
		<g>
			<g>
				<path class="st0" d="M72.4,45.7l-9.6-12h-0.1v11.9h-6.1V19.9h6.1v10.5h0.1L72,19.9h7.8l-11,11.9l11.8,14L72.4,45.7L72.4,45.7z"
					/>
				<path class="st0" d="M94,46.4c-8.1,0-14.1-5.5-14.1-13.7c0-8.3,6-13.5,14.1-13.5s14.1,5.1,14.1,13.4
					C108.1,40.7,102.1,46.4,94,46.4z M94,24.7c-4.4,0-7.4,3.3-7.4,7.8c0,4.7,3,8.1,7.4,8.1s7.4-3.3,7.4-8.1
					C101.4,28.2,98.4,24.7,94,24.7z"/>
				<path class="st0" d="M128.7,45.7l-10.4-16.9h-0.1l0.1,16.9h-6V19.9h7.1l10.4,16.9h0.1l-0.4-16.9h6v25.9L128.7,45.7L128.7,45.7z"
					/>
				<path class="st0" d="M157.4,45.7L147,28.8l0,0l0.1,16.9h-6V19.9h7.1l10.4,16.9h0.1l-0.2-16.9h6v25.9L157.4,45.7L157.4,45.7z"/>
				<path class="st0" d="M169.9,45.7V19.9h17.3v5.3h-11.3v4.9h10.8v5h-10.8v5.3h12v5.3L169.9,45.7L169.9,45.7L169.9,45.7z"/>
				<path class="st0" d="M204.9,46.4c-8,0-13.9-5.5-13.9-13.6c0-8.3,6.1-13.6,14-13.6c3.6,0,7.5,1.2,9.7,3.8l-4.3,4.3
					c-1.1-1.6-3.2-2.4-5.2-2.4c-4.4,0-7.4,3.3-7.4,8c0,4.8,3,8,7.4,8c2.4,0,4.4-1,5.4-2.7l4.4,4C212.6,44.6,209.1,46.4,204.9,46.4z"
					/>
				<path class="st0" d="M228.3,25.1v20.6H222V25.1h-7.2v-5.3h20.8v5.3C235.6,25.1,228.3,25.1,228.3,25.1z"/>
			</g>
		</g>
	</g>
	<g>
		<path class="st1" d="M248.8,46.1h-10.3V20.2h10.3c4,0,8.8,1.4,8.8,6.7c0,2.9-1.7,4.8-4.3,5.5v0.1c3,0.5,5.3,2.7,5.3,6
			C258.7,44.1,253.8,46.1,248.8,46.1z M247.7,25.1h-3.1v5.3h3.3c2.3,0,3.7-1,3.7-2.8C251.6,25.8,250.3,25.1,247.7,25.1z M248,35
			h-3.4v5.9h3.4c2,0,4.4-0.6,4.4-3.1C252.5,35.8,250.6,35,248,35z"/>
		<path class="st1" d="M262.8,46.1V20.2h6.3v25.9H262.8z"/>
		<path class="st1" d="M287.3,46.7c-8.1,0-14.1-5.5-14.1-13.7c0-8.3,6-13.5,14.1-13.5s14.1,5.2,14.1,13.5
			C301.4,41,295.5,46.7,287.3,46.7z M287.3,25c-4.4,0-7.4,3.3-7.4,7.8c0,4.7,3,8.1,7.4,8.1s7.4-3.3,7.4-8.1
			C294.8,28.3,291.7,25,287.3,25z"/>
	</g>
	<g>
		<g>
			<g>
				<path class="st0" d="M48.5,38.6c0,4-1.6,8-4.4,10.9c-2.8,2.9-6.8,4.6-10.9,4.6c-4,0-8.1-1.6-10.9-4.5c-2.9-2.8-4.6-6.9-4.6-10.9
					c0-4.1,1.7-8.1,4.6-10.9c2.9-2.9,6.9-4.5,10.9-4.5s8,1.7,10.9,4.6C46.9,30.6,48.6,34.6,48.5,38.6z M48.5,38.6
					c0-4-1.7-8-4.5-10.8s-6.8-4.4-10.8-4.4s-7.9,1.7-10.7,4.5s-4.4,6.7-4.3,10.7c0,3.9,1.6,7.9,4.3,10.7c2.8,2.8,6.7,4.5,10.7,4.5
					s7.9-1.6,10.8-4.4C46.9,46.5,48.5,42.6,48.5,38.6z"/>
				<g>
					<path class="st0" d="M48.5,38.6c0.1,4-1.6,8.1-4.4,10.9c-2.8,2.9-6.8,4.6-10.9,4.7c-4.1,0.1-8.2-1.6-11.1-4.5s-4.7-7-4.7-11.1
						s1.8-8.2,4.7-11.1s7-4.5,11.1-4.5s8.1,1.8,10.9,4.7C47,30.5,48.6,34.5,48.5,38.6z M48.5,38.6c0-4-1.7-8-4.5-10.9
						c-2.9-2.8-6.9-4.4-10.9-4.4s-7.9,1.7-10.7,4.6c-2.8,2.8-4.4,6.7-4.4,10.7c0,3.9,1.6,7.9,4.4,10.7s6.7,4.5,10.7,4.6
						s8-1.5,10.9-4.4C46.9,46.6,48.6,42.6,48.5,38.6z"/>
					<path class="st0" d="M48.5,38.6c0-4-1.7-7.9-4.5-10.7s-6.7-4.3-10.7-4.3c-3.9,0-7.8,1.7-10.5,4.5c-2.7,2.7-4.3,6.6-4.3,10.5
						c-0.1,3.9,1.5,7.7,4.3,10.5c2.7,2.8,6.6,4.4,10.5,4.5s7.9-1.5,10.7-4.3C46.8,46.4,48.5,42.5,48.5,38.6z M48.5,38.6
						c0,4-1.6,7.9-4.4,10.7c-2.8,2.8-6.7,4.6-10.7,4.6c-4,0.1-8.1-1.5-10.9-4.4c-2.9-2.8-4.6-6.9-4.5-10.9c0-4.1,1.7-8.1,4.6-10.9
						c2.9-2.9,6.9-4.4,10.9-4.4s8,1.7,10.7,4.6C46.9,30.6,48.5,34.6,48.5,38.6z"/>
				</g>
			</g>
			<g>
				<path class="st0" d="M51.4,32.7c0,5.7-2.3,11.4-6.3,15.5s-9.7,6.5-15.5,6.5S18.1,52.4,14,48.3s-6.5-9.8-6.5-15.6
					S9.9,21.2,14,17.1s9.8-6.4,15.6-6.4s11.4,2.4,15.5,6.5S51.5,27,51.4,32.7z M51.4,32.7c0-5.7-2.4-11.4-6.4-15.4S35.3,11,29.6,11
					s-11.3,2.4-15.3,6.4S8,27,8,32.7C8,38.3,10.3,44,14.3,48s9.6,6.4,15.3,6.4s11.3-2.3,15.4-6.3S51.4,38.4,51.4,32.7z"/>
				<g>
					<path class="st0" d="M51.4,32.7c0.1,5.8-2.3,11.5-6.4,15.6c-4,4.1-9.8,6.5-15.6,6.6s-11.6-2.3-15.7-6.4
						c-4.2-4.1-6.6-9.9-6.6-15.7c0-5.9,2.5-11.6,6.6-15.7s9.9-6.5,15.7-6.4c5.8,0,11.5,2.5,15.6,6.6C49.2,21.2,51.5,26.9,51.4,32.7z
						 M51.4,32.7c0-5.8-2.4-11.5-6.4-15.5c-4.1-4.1-9.8-6.3-15.5-6.3s-11.3,2.4-15.3,6.5c-4,4-6.3,9.6-6.3,15.3
						c0,5.6,2.3,11.3,6.3,15.3s9.6,6.4,15.3,6.5s11.4-2.2,15.5-6.3C49.1,44.2,51.5,38.4,51.4,32.7z"/>
					<path class="st0" d="M51.4,32.7c0-5.7-2.4-11.3-6.4-15.3s-9.7-6.3-15.3-6.2c-5.6,0-11.2,2.4-15.1,6.4c-4,4-6.2,9.5-6.2,15.1
						c-0.1,5.6,2.2,11.2,6.2,15.1c3.9,4,9.5,6.4,15.1,6.4C35.4,54.2,41,52,45,48C49.1,44,51.4,38.4,51.4,32.7z M51.4,32.7
						c0,5.7-2.3,11.3-6.3,15.4s-9.6,6.5-15.4,6.5c-5.7,0.1-11.5-2.2-15.6-6.3c-4.1-4-6.5-9.8-6.5-15.6s2.4-11.5,6.5-15.6
						s9.8-6.4,15.6-6.3c5.7,0,11.4,2.4,15.4,6.5C49.1,21.4,51.5,27,51.4,32.7z"/>
				</g>
			</g>
			<g>
				<path class="st0" d="M33.7,11.2c-1,0.6-2,1.1-3,1.7l-3,1.7l0,0l0,0l-1.1,2.1l-1.1,2.1l-1.1,2.1L23.3,23l0,0l0,0l-0.6,2.7
					L22,28.4l0.7-2.7l0.6-2.7l0,0l1.1-2.1l1.1-2.1l1.1-2.1l1.1-2.1l0,0l2.9-1.7C31.8,12.3,32.8,11.8,33.7,11.2z"/>
				<path class="st0" d="M33.7,11.2c-1.1,0.6-2,1.2-3,1.8s-2,1.2-3,1.8l0.1-0.1c-1.4,2.9-2.9,5.7-4.4,8.6v-0.1l-1.1,5.4l-0.7-0.2
					l0.7-2.7l0.6-2.7l0,0l0,0c1.5-2.8,3-5.6,4.6-8.4v-0.1l0,0c1-0.6,2-1.1,3-1.6C31.6,12.3,32.6,11.8,33.7,11.2z M33.7,11.2
					c-0.9,0.5-1.9,1.2-2.9,1.8l-2.9,1.8l0.1-0.1c-1.4,2.9-2.9,5.7-4.4,8.6v-0.1L23,25.9l-0.7,2.7l-0.7-0.2l1.2-5.4l0,0l0,0
					c1.5-2.8,3-5.6,4.6-8.4v-0.1h0.1c1-0.5,2-1.1,3.1-1.6C31.6,12.2,32.7,11.8,33.7,11.2z"/>
			</g>
			<g>
				<path class="st0" d="M47.3,19.6l-3.2-1.5l-3.2-1.3l0,0l0,0l-6.6-1.1l-6.5-1.1l0,0c-2.1-0.7-4.3-1.3-6.4-2
					c2.1,0.8,4.1,1.5,6.3,2.1l0,0l0,0l6.5,1.2l6.5,1.1l0,0l3.4,1.3L47.3,19.6z"/>
				<path class="st0" d="M47.3,19.6c-1.1-0.5-2.2-0.9-3.3-1.4L40.7,17l0,0l-6.6-1c-2.2-0.3-4.4-0.7-6.6-1.1l0,0l0,0l-6.4-2l0.2-0.7
					l6.2,2.2l0,0c2.2,0.4,4.3,0.8,6.5,1.3l6.5,1.2l0,0l0,0l3.3,1.4C45,18.7,46.1,19.2,47.3,19.6z M47.3,19.6
					c-1.1-0.4-2.2-0.7-3.4-1.1l-3.4-1.3l0,0l-6.5-1c-2.2-0.4-4.3-0.8-6.5-1.2l0,0l0,0l-6.3-2.1l0.2-0.7l6.4,2l0,0
					c2.2,0.4,4.4,0.8,6.5,1.2l6.5,1.2l0,0l0,0L44,18C45.2,18.6,46.3,19.2,47.3,19.6z"/>
			</g>
			<g>
				<path class="st0" d="M15.6,16c1.2,1.2,2.6,2.3,3.8,3.5l1.9,1.7c0.7,0.6,1.3,1.1,1.9,1.7l0,0l0,0c1.3,0.1,2.8,0.2,4.1,0.3
					c1.3,0.1,2.8,0.2,4.1,0.2c-1.3-0.1-2.8-0.2-4.1-0.3c-1.3-0.1-2.8-0.2-4.1-0.3l0,0c-0.7-0.6-1.3-1.1-1.9-1.7l-1.9-1.7
					C18.3,18.3,17,17.1,15.6,16z"/>
				<path class="st0" d="M15.6,16c0.7,0.6,1.3,1.2,2,1.7s1.3,1,1.9,1.6l3.9,3.3l-0.2-0.1l4.1,0.3l4.1,0.2v0.7L23.2,23h-0.1l0,0
					l-3.7-3.5c-0.6-0.6-1.2-1.1-1.8-1.7C17,17.2,16.3,16.6,15.6,16z M15.6,16c0.6,0.5,1.2,1,1.9,1.6c0.7,0.5,1.4,1.1,2,1.6l3.9,3.3
					l-0.2-0.1l8.3,0.6v0.7l-4.2-0.3L23.2,23h-0.1L23,23.1l-3.7-3.5c-0.6-0.6-1.3-1.2-1.9-1.9C16.8,17.1,16.2,16.6,15.6,16z"/>
			</g>
			<g>
				<path class="st0" d="M46.4,46.2c-1.1-1.1-2.3-2.1-3.6-3.2L41,41.4c-0.6-0.6-1.2-1.1-1.8-1.6l0,0l0,0c-1.2-0.1-2.6-0.2-3.8-0.2
					c-1.2-0.1-2.6-0.2-3.8-0.2c1.2,0.1,2.6,0.2,3.8,0.3s2.6,0.2,3.8,0.3l0,0c0.6,0.6,1.2,1.1,1.8,1.6l1.8,1.6
					C43.9,44.1,45.2,45.2,46.4,46.2z"/>
				<path class="st0" d="M46.4,46.2c-1.2-1.1-2.5-2.1-3.6-3.1L39.1,40h0.1l-3.8-0.1l0,0l-3.8-0.1v-0.7l7.6,0.8h0.1l0.1,0.1l3.5,3.2
					C44,44.1,45.2,45.2,46.4,46.2z M46.4,46.2c-1.2-1-2.4-1.9-3.7-3l-3.6-3l0.1,0.1l-7.6-0.5v-0.7l3.8,0.3l0,0l3.8,0.3h0.1l0,0
					l3.5,3.2C44.1,44.1,45.2,45.2,46.4,46.2z"/>
			</g>
			<g>
				<path class="st0" d="M23.4,22.9c-1.3,0.6-2.7,1.1-4,1.8l-2,0.9c-0.7,0.3-1.3,0.6-2,0.9h0.1l-1.3-0.7l-1.5-0.6
					c-0.4-0.2-0.9-0.4-1.3-0.7l-1.3-0.7l1.3,0.7c0.4,0.2,0.9,0.4,1.3,0.7l1.3,0.7l1.3,0.7l0,0l0,0c0.7-0.3,1.3-0.6,2-0.9l2-0.9
					C20.8,24.2,22.1,23.5,23.4,22.9z"/>
				<path class="st0" d="M23.4,22.9c-1.4,0.6-2.7,1.3-4,1.9l-4,1.9l-0.1-0.4h0.1l-0.1,0.4L14,26l0,0l-1.5-0.5l0,0l0,0l-2.7-1.3
					l0.3-0.7l5.3,2.8h-0.2l4.1-1.7C20.7,24.1,22,23.5,23.4,22.9z M23.4,22.9c-1.3,0.7-2.6,1.4-4,2l-4,1.9h-0.1h-0.1l-5.4-2.5
					l0.3-0.7l2.7,1.4l0,0l1.4,0.6l0,0l0,0l1.3,0.7l0.8,0.4h-0.9h-0.1h-1l0.9-0.4l4.1-1.7C20.7,24,22.1,23.4,23.4,22.9z"/>
			</g>
			<g>
				<path class="st0" d="M47.2,26.2c-0.4-0.3-0.9-0.7-1.3-1l-1.3-0.9l-1.3-0.9c-0.4-0.3-0.9-0.7-1.3-0.9v0.1
					c-0.2-0.9-0.3-1.9-0.6-2.8s-0.3-1.9-0.6-2.8c0.1,0.9,0.3,1.9,0.4,2.8c0.1,0.9,0.3,1.9,0.6,2.8l0,0l0,0c0.4,0.3,0.9,0.6,1.3,0.9
					l1.3,0.9l1.3,0.9C46.2,25.6,46.6,26,47.2,26.2z"/>
				<path class="st0" d="M47.2,26.2c-0.5-0.3-0.9-0.6-1.3-0.9l-1.4-0.9l-1.4-0.9c-0.5-0.3-0.9-0.6-1.4-0.8l0.3-0.2v0.1l0.1,1.7
					l-0.4-1.6c-0.3-0.9-0.4-1.9-0.6-2.8c-0.3-0.9-0.4-1.9-0.6-2.8l0,0l0.7-0.1l0.4,2.8l0.5,2.8L42,22.5c0.4,0.3,0.9,0.6,1.3,0.9
					l1.3,0.9l1.3,1C46.2,25.7,46.7,26,47.2,26.2z M47.2,26.2c-0.5-0.2-1-0.5-1.4-0.8l-1.4-0.9L43,23.7c-0.4-0.3-0.9-0.5-1.4-0.9
					h-0.1v-0.1l-0.6-2.8l-0.5-2.8l0.7-0.1l0,0c0.2,1,0.3,1.9,0.5,2.8c0.2,1,0.3,1.9,0.5,2.8h-0.4v-0.1v-0.3l0.3,0.2
					c0.5,0.3,0.9,0.6,1.4,1l1.3,0.9l1.3,0.9C46.4,25.5,46.8,25.9,47.2,26.2z"/>
			</g>
			<g>
				<path class="st0" d="M48.3,39.6c-0.4-0.2-0.9-0.4-1.3-0.7l-1.3-0.7l-1.5-0.7c-0.4-0.2-0.9-0.4-1.5-0.7l0,0
					c-0.3-0.8-0.7-1.7-1-2.5s-0.7-1.7-1.1-2.5c0.3,0.9,0.7,1.7,0.9,2.6c0.3,0.9,0.7,1.7,1,2.6l0,0l0,0c0.4,0.2,0.9,0.4,1.5,0.6
					l1.5,0.6l1.5,0.6C47.3,39.2,47.7,39.4,48.3,39.6z"/>
				<path class="st0" d="M48.3,39.6c-0.5-0.3-1-0.4-1.4-0.6l-1.4-0.6l-2.8-1.2h-0.1v-0.1l-1.1-2.5c-0.4-0.8-0.7-1.7-1.1-2.4l0.7-0.3
					c0.3,0.8,0.7,1.7,0.9,2.6l0,0l1,2.6l-0.1-0.2c0.5,0.3,0.9,0.5,1.4,0.6l0,0l0,0c1,0.4,1.9,0.8,2.9,1.2l0,0l0,0
					C47.3,39.1,47.8,39.4,48.3,39.6z M48.3,39.6c-0.5-0.2-1.1-0.4-1.5-0.7l0,0c-1-0.3-2-0.6-3-1l0,0c-0.6-0.1-1.1-0.3-1.5-0.5h-0.1
					v-0.1l-1.1-2.6l0,0l0,0c-0.2-0.8-0.6-1.7-0.9-2.5l0.7-0.3c0.5,0.8,0.8,1.7,1.1,2.5l1,2.5l-0.2-0.2l2.8,1.4l1.4,0.8
					C47.5,39.1,47.9,39.4,48.3,39.6z"/>
			</g>
			<g>
				<path class="st0" d="M41.8,22.5c-0.3,0.1-0.8,0.1-1.1,0.2s-0.8,0.2-1.1,0.3c-0.3,0.1-0.8,0.2-1.1,0.3l-0.6,0.2
					c-0.2,0.1-0.3,0.1-0.6,0.2c0.2,0,0.3-0.1,0.6-0.1l0.6-0.1c0.3-0.1,0.8-0.2,1.1-0.3c0.3-0.1,0.8-0.2,1.1-0.3
					C41,22.9,41.5,22.7,41.8,22.5z"/>
				<path class="st0" d="M41.8,22.5c-0.3,0.2-0.7,0.2-1,0.3c-0.3,0.1-0.6,0.3-0.9,0.4c-0.6,0.3-1.3,0.4-1.9,0.7l0,0
					C37.9,24,37.8,24,37.7,24s-0.2,0.1-0.2,0.1l-0.2-0.7c0,0,0.1,0,0.2,0c0.1,0,0.2-0.1,0.4-0.1h-0.1l0.6-0.1l0,0
					c0.6-0.1,1.1-0.3,1.7-0.4C40.7,22.8,41.3,22.7,41.8,22.5z M41.8,22.5c-0.2,0.2-0.5,0.4-0.8,0.5s-0.5,0.2-0.8,0.4
					c-0.5,0.2-1.1,0.4-1.7,0.6l0,0l0,0L38,24.1l0,0h-0.1c0,0-0.1,0-0.2,0c-0.1,0-0.2,0.1-0.4,0.1h-1.6l1.4-0.7
					c0.1-0.1,0.2-0.1,0.3-0.1s0.2-0.1,0.2-0.1l0,0l0,0c0.6-0.3,1.3-0.4,2-0.6c0.3-0.1,0.7-0.1,1-0.2C41.1,22.5,41.5,22.5,41.8,22.5z
					"/>
			</g>
			<g>
				<path class="st0" d="M18.9,33l-1.8-3.2l-1.8-3.2l-0.1-0.1v0.1c-0.7,2.1-1.2,4.3-1.9,6.4c-0.7,2.1-1.2,4.3-1.9,6.4h0.1l-0.8-2.7
					L9.9,34c-0.6-1.8-1.1-3.6-1.7-5.4c0.6,1.8,1,3.6,1.6,5.4l0.8,2.7l0.8,2.7l0.1,0.2l0.1-0.2c0.7-2.1,1.2-4.3,1.9-6.4
					c0.6-2.1,1.2-4.3,1.9-6.4h-0.1l1.8,3.2L18.9,33z"/>
				<path class="st0" d="M18.9,33l-3.7-6.4l0,0l-0.1-0.1l0.3-0.1v0.1l0,0l0,0c-1.2,4.3-2.4,8.5-3.7,12.8L11.4,39h0.1l-0.3,0.4
					L9.6,34l-1.7-5.3l0.7-0.2l3.1,10.8v-0.1l0.1,0.2h-0.6l0.1-0.2l0,0c0.6-2.1,1.3-4.2,2-6.4l2-6.4l0.2,0.2h-0.1l0.1-0.3L18.9,33z
					 M18.9,33l-3.7-6.4L15,26.4h0.3h0.1h0.2l-0.1,0.2L13.8,33c-0.6,2.1-1.2,4.3-1.8,6.4l0,0l0,0l-0.1,0.2l-0.3,0.6l-0.3-0.6
					l-0.1-0.2l0,0l0,0L7.9,28.7l0.7-0.2l1.7,5.4l1.5,5.4l0.1,0.4h-0.4h-0.1H11l0.1-0.4c1.3-4.2,2.6-8.5,3.9-12.7v0.1v-0.1v-0.4
					l0.3,0.3l0.1,0.1l0,0l0,0L18.9,33z"/>
			</g>
			<g>
				<path class="st0" d="M20.9,50.8c-0.4-0.7-0.9-1.3-1.3-2.1c-0.4-0.7-0.9-1.3-1.3-2.1l-1.3-2l-1.3-2l0,0l0,0
					c-0.7-0.6-1.3-1.1-2-1.7c-0.7-0.6-1.3-1.1-2-1.6c0.7,0.6,1.3,1.1,1.9,1.7c0.7,0.6,1.3,1.1,2,1.7l0,0l1.3,2l1.3,2
					c0.4,0.7,0.9,1.3,1.3,2C19.9,49.5,20.5,50.1,20.9,50.8z"/>
				<path class="st0" d="M20.9,50.8c-0.9-1.4-1.8-2.8-2.7-4.1l-2.9-4l0.1,0.1c-0.7-0.5-1.4-1.1-2-1.6l-2-1.5l0.4-0.6l1.9,1.7l0,0
					c0.7,0.6,1.3,1.1,2,1.7l0,0l0,0l2.6,4.2l1.3,2.1C19.9,49.5,20.5,50.1,20.9,50.8z M20.9,50.8c-0.5-0.7-1-1.3-1.4-2
					c-0.5-0.7-0.9-1.3-1.4-2l-2.9-4l0.1,0.1c-0.7-0.5-1.4-1.1-2.1-1.6l0,0l-1.9-1.6l0.4-0.6l2.1,1.6c0.7,0.6,1.3,1.1,1.9,1.7l0,0
					l0,0l2.6,4.2C19.2,48,20,49.4,20.9,50.8z"/>
			</g>
			<g>
				<path class="st0" d="M25.6,54.1c-0.8-0.6-1.6-1.1-2.3-1.7c-0.8-0.6-1.6-1.1-2.3-1.7l0,0l0,0c-0.6-0.2-1.1-0.4-1.6-0.7l-1.6-0.7
					c-1.1-0.4-2.1-0.9-3.2-1.2c1,0.4,2.1,0.9,3.1,1.5l1.6,0.7c0.6,0.2,1.1,0.4,1.6,0.7l0,0c0.8,0.6,1.6,1.1,2.3,1.6
					C24,53.1,24.8,53.5,25.6,54.1z"/>
				<path class="st0" d="M25.6,54.1c-1.6-1.1-3.2-2.2-4.8-3.2l0,0l-3.2-1.2c-1.1-0.4-2.1-0.8-3.2-1.2l0.3-0.7c1.1,0.5,2.1,1,3.1,1.5
					l0,0l3.1,1.5l0,0l0,0c0.8,0.6,1.5,1.1,2.3,1.7C24,53,24.8,53.5,25.6,54.1z M25.6,54.1c-1.6-1-3.3-2-4.9-3l0,0l-3.2-1.2l0,0
					c-1.1-0.4-2.1-0.9-3.1-1.4l0.3-0.7c1.1,0.4,2.2,0.8,3.2,1.3l3.1,1.5l0,0l0,0C22.5,51.8,24,52.9,25.6,54.1z"/>
			</g>
			<g>
				<path class="st0" d="M18.1,38c-0.2,0.3-0.4,0.8-0.7,1.1c-0.2,0.3-0.4,0.8-0.7,1.1c-0.2,0.3-0.4,0.8-0.7,1.1L15.8,42
					c-0.1,0.2-0.2,0.4-0.3,0.6c0.1-0.2,0.2-0.3,0.3-0.6l0.3-0.6c0.2-0.3,0.4-0.8,0.7-1.1c0.2-0.3,0.4-0.8,0.7-1.1
					C17.8,38.7,17.9,38.4,18.1,38z"/>
				<path class="st0" d="M18.1,38c-0.2,0.3-0.3,0.7-0.4,0.9c-0.1,0.3-0.2,0.6-0.4,0.9c-0.3,0.6-0.6,1.2-0.9,1.7l0,0l-0.3,0.6
					l-0.2,0.3c-0.1,0.1-0.1,0.2-0.3,0.4l-1.8,2l1.2-2.4c0.1-0.2,0.3-0.4,0.3-0.6l0,0l0,0c0.4-0.7,0.8-1.3,1.3-2
					c0.2-0.3,0.4-0.7,0.7-0.9C17.7,38.6,17.9,38.3,18.1,38z M18.1,38c-0.1,0.4-0.2,0.8-0.4,1.1c-0.2,0.4-0.3,0.7-0.5,1.1
					c-0.4,0.7-0.7,1.4-1.1,2l0,0c-0.1,0.2-0.3,0.4-0.3,0.6l-0.6-0.4c0,0,0.1-0.1,0.1-0.2l0.2-0.3l0.3-0.6l0,0l0,0
					c0.4-0.5,0.7-1.1,1.1-1.6c0.2-0.3,0.4-0.5,0.6-0.8C17.8,38.4,18,38.2,18.1,38z"/>
			</g>
			<g>
				<path class="st0" d="M31.2,32.2L31.2,32.2c0.8-0.3,1.6-0.7,2.2-1.1l2.2-1.2h-0.1l2.5,1c0.8,0.3,1.7,0.7,2.5,0.9
					c-0.8-0.3-1.7-0.7-2.5-1l-2.5-1l0,0l0,0L33.2,31C32.5,31.4,31.8,31.8,31.2,32.2H31l0.1,0.1"/>
				<path class="st0" d="M31.2,32.2L31.2,32.2L31.2,32.2c0.7-0.4,1.5-0.8,2.1-1.3l0,0l0,0l2.2-1.3l0.1,0.5h-0.1l0.1-0.6
					c0.8,0.3,1.6,0.6,2.5,0.9l2.4,0.9L40.2,32c-1.6-0.7-3.3-1.4-4.9-2.1h0.2L33.2,31C32.7,31.5,31.9,31.8,31.2,32.2L31.2,32.2
					L31.2,32.2H31l0,0l0.1,0.1H31l0,0l0,0L31.2,32.2L31.2,32.2c0.6-0.6,1.3-1,2.1-1.5l2.2-1.2l0.1-0.1l0.1,0.1
					c1.7,0.6,3.3,1.3,5,1.9l-0.3,0.7l-2.5-0.9c-0.8-0.4-1.6-0.7-2.4-1.1l-1.3-0.6l1.4,0.1h0.1h1.1l-1,0.5l-2.3,1.1l0,0
					C32.7,31.6,31.9,31.9,31.2,32.2L31.2,32.2L31.2,32.2L31.2,32.2z"/>
			</g>
			<g>
				<path class="st0" d="M31.4,39.4l-2,0.6l-2,0.6h0.1l-0.9-1.7l-1-1.6l-1-1.6l-1-1.6v0.1c1.2-0.3,2.5-0.6,3.7-0.9l1.9-0.4l1.9-0.4
					l-1.9,0.4l-1.9,0.4c-1.2,0.3-2.5,0.6-3.7,0.9h-0.1l0.1,0.1l1,1.6l1,1.6l1,1.6l1,1.6l0,0l0,0l2-0.6L31.4,39.4z"/>
				<path class="st0" d="M31.4,39.4c-0.7,0.2-1.4,0.5-2,0.6l-2,0.6v-0.3h0.1l-0.1,0.2l-0.9-1.7l0,0l-3.1-4.6L24,34v0.1l-0.4-0.3
					l7.5-1.8l0.2,0.7l-7.5,1.7h-0.1l0,0h-0.1l0.2-0.5l0.1,0.1l0,0l0,0l2,3.2c0.6,1.1,1.3,2.1,1.9,3.2l-0.2-0.1l2-0.5l0,0
					C30.2,39.8,30.8,39.6,31.4,39.4z M31.4,39.4c-0.6,0.2-1.1,0.5-1.8,0.7l0,0l0,0l-2,0.6h-0.1l-0.1-0.1c-0.7-1-1.4-2.1-2.1-3.1
					l-2.1-3.1v0.1l-0.1-0.1l-0.5-0.5h0.8h0.1h-0.1l7.5-1.8l0.2,0.7l-7.5,1.7l-0.4,0.1v-0.4v-0.1V33l0.6,0.9l2.9,4.8l0,0l0,0l0.9,1.7
					l0.1,0.2h-0.3h-0.1h-1.2l1.1-0.3l2-0.5C30.1,39.7,30.8,39.6,31.4,39.4z"/>
			</g>
			<g>
				<polygon class="st0" points="21.8,38 21.8,39.3 21.8,40.7 21.8,43.5 21.8,43.5 21.8,43.5 23.4,46 24.1,47.1 24.9,48.4 
					24.9,48.4 24.9,48.4 26.4,49.7 27.7,51 29.2,52.3 30.5,53.6 29.2,52.3 27.8,50.9 26.5,49.6 25,48.2 25,48.2 24.3,47 23.5,45.9 
					21.9,43.5 21.9,43.5 21.9,40.7 21.8,39.3 				"/>
				<path class="st0" d="M21.8,38l0.1,5.6v-0.1l1.6,2.4l0.8,1.2l0.8,1.2l0,0l1.5,1.3l1.4,1.3l0,0l1.5,1.2l0,0l0,0l1.4,1.3l-0.5,0.5
					l-2.7-2.8l-1.3-1.4L25,48.4l0,0l0,0c-0.5-0.8-1-1.6-1.5-2.4L22,43.6l0,0l0,0l0.1-2.8l0,0L22,39.3l0,0L21.8,38z M21.8,38v1.3l0,0
					l0.1,1.5l0,0l0.1,2.8v-0.1l1.6,2.3c0.6,0.8,1.1,1.5,1.6,2.3l0,0l1.4,1.3l1.4,1.3l2.8,2.7l-0.5,0.5L29,52.5l0,0l-1.4-1.3l0,0l0,0
					l-1.3-1.4l-1.4-1.3l0,0l0,0L24,47.3l-0.8-1.2l-1.5-2.5l0,0l0,0L21.8,38z"/>
			</g>
			<g>
				<path class="st0" d="M27.4,40.5c-0.2,0.7-0.4,1.2-0.7,1.9s-0.4,1.2-0.7,1.9c-0.2,0.7-0.4,1.3-0.6,1.9l-0.2,1
					c-0.1,0.3-0.2,0.7-0.2,1c0.1-0.3,0.2-0.7,0.3-1l0.3-1c0.2-0.7,0.4-1.2,0.7-1.9c0.2-0.7,0.4-1.3,0.6-1.9
					C27.1,41.9,27.3,41.2,27.4,40.5z"/>
				<path class="st0" d="M27.4,40.5c-0.2,0.6-0.3,1.2-0.4,1.7s-0.3,1.1-0.5,1.7c-0.2,0.6-0.3,1.1-0.4,1.7c-0.2,0.5-0.3,1.1-0.4,1.7
					l0,0l0,0c-0.1,0.3-0.2,0.6-0.2,0.9l-0.7-0.1c0.4-1.3,0.9-2.5,1.4-3.8l0.7-1.9C26.9,41.9,27.2,41.3,27.4,40.5z M27.4,40.5
					c-0.1,0.5-0.2,1.3-0.3,2l-0.5,2c-0.4,1.3-0.8,2.6-1.2,3.8l-0.8,2.4v-2.5c0-0.4,0.1-0.8,0.3-1.1l0,0c0.1-0.6,0.3-1.1,0.5-1.7
					c0.2-0.6,0.4-1.1,0.6-1.7c0.2-0.6,0.4-1.1,0.7-1.7C26.9,41.5,27.2,41,27.4,40.5z"/>
			</g>
			<g>
				<path class="st0" d="M37.9,48.6c-0.4-0.3-0.9-0.7-1.3-1l-1.3-0.9L34,45.8c-0.4-0.3-0.9-0.7-1.3-0.9V45c-0.2-0.9-0.3-1.9-0.6-2.8
					c-0.2-0.9-0.3-1.9-0.6-2.8c0.1,0.9,0.3,1.9,0.4,2.8c0.1,0.9,0.3,1.9,0.6,2.8l0,0l0,0c0.4,0.3,0.9,0.6,1.3,0.9l1.3,0.9l1.3,0.9
					C37,48,37.5,48.2,37.9,48.6z"/>
				<path class="st0" d="M37.9,48.6l-1.3-1l-1.4-0.9l-1.4-0.9c-0.4-0.3-0.9-0.6-1.4-0.9l0.1-0.1v0.1v0.8L32.4,45
					c-0.3-0.9-0.4-1.9-0.7-2.8c-0.3-0.9-0.4-1.9-0.7-2.8l0,0l0.7-0.1c0.1,0.9,0.2,1.9,0.3,2.8l0.5,2.8v-0.1c0.4,0.3,0.9,0.6,1.3,0.9
					l1.3,0.9C36,47.4,37,48,37.9,48.6z M37.9,48.6C37,48,36,47.4,35.1,46.8l-1.4-0.9c-0.4-0.3-0.9-0.5-1.4-0.9l0,0l0,0l-0.7-2.8
					c-0.2-0.9-0.4-1.9-0.6-2.8l0.7-0.1l0,0c0.2,1,0.2,1.9,0.4,2.8c0.2,1,0.3,1.9,0.5,2.8h-0.2v-0.1v-0.2l0.1,0.1
					c0.5,0.3,0.9,0.6,1.3,0.9l1.3,0.9l1.3,0.9L37.9,48.6z"/>
			</g>
			<g>
				<path class="st0" d="M32.5,44.9c-0.3,0.1-0.8,0.1-1.1,0.2c-0.3,0.1-0.8,0.2-1.1,0.3s-0.8,0.2-1.1,0.3L28.6,46
					c-0.2,0.1-0.3,0.1-0.6,0.2c0.2,0,0.3-0.1,0.6-0.1l0.6-0.1c0.3-0.1,0.8-0.2,1.1-0.3s0.8-0.2,1.1-0.3C31.9,45.1,32.2,45,32.5,44.9
					z"/>
				<path class="st0" d="M32.5,44.9c-0.3,0.1-0.7,0.1-1,0.2c-0.3,0.1-0.6,0.3-0.9,0.4c-0.6,0.3-1.3,0.5-1.9,0.8l0,0
					c-0.1,0.1-0.2,0.1-0.3,0.1c-0.1,0-0.2,0.1-0.2,0.1L28,45.8c0,0,0.1,0,0.2,0s0.2-0.1,0.4-0.1h-0.1c0.2,0,0.4-0.1,0.6-0.1l0,0
					c0.8-0.1,1.5-0.3,2.3-0.4l0,0C31.8,45.2,32.2,45,32.5,44.9z M32.5,44.9c-0.4,0.2-0.7,0.3-1.1,0.5l0,0c-0.7,0.3-1.4,0.6-2.2,0.9
					l0,0l0,0c-0.2,0-0.4,0.1-0.6,0.1l0,0h-0.1c0,0-0.1,0-0.2,0s-0.2,0.1-0.4,0.1h-1.6l1.4-0.7c0.1-0.1,0.2-0.1,0.3-0.1
					c0.1,0,0.2-0.1,0.2-0.1l0,0l0,0c0.3-0.1,0.7-0.2,1-0.3l1-0.2c0.3-0.1,0.7-0.1,1-0.2C31.9,45,32.2,45,32.5,44.9z"/>
			</g>
		</g>
		<g>
			<circle class="st2" cx="8.4" cy="28.6" r="1"/>
			<circle class="st2" cx="21.8" cy="38" r="1"/>
			<circle class="st2" cx="31.1" cy="32.2" r="1"/>
			<circle class="st2" cx="47.1" cy="26.2" r="1"/>
			<circle class="st2" cx="33.7" cy="11.2" r="1"/>
			<circle class="st2" cx="40.6" cy="31.9" r="0.9"/>
			<circle class="st2" cx="15.5" cy="42.6" r="0.9"/>
			<circle class="st2" cx="47.3" cy="19.6" r="0.8"/>
			<circle class="st2" cx="40.7" cy="16.9" r="0.8"/>
			<circle class="st2" cx="31.4" cy="39.3" r="0.8"/>
			<circle class="st2" cx="37.2" cy="23.9" r="0.8"/>
			<circle class="st2" cx="48.4" cy="39.6" r="0.8"/>
			<circle class="st2" cx="21.9" cy="43.7" r="1"/>
			<circle class="st2" cx="23.4" cy="22.9" r="1"/>
			<circle class="st2" cx="22.4" cy="27.9" r="0.6"/>
			<circle class="st2" cx="9.9" cy="24.1" r="0.8"/>
			<circle class="st2" cx="31" cy="53.7" r="1.1"/>
			<circle class="st2" cx="25.6" cy="54.1" r="1.2"/>
			<circle class="st2" cx="37.9" cy="48.6" r="1"/>
			<circle class="st2" cx="27.9" cy="46.2" r="0.8"/>
			<circle class="st2" cx="14.6" cy="48.1" r="0.9"/>
		</g>
		<g>
			<circle class="st3" cx="24.9" cy="48.2" r="1"/>
			<circle class="st3" cx="27.7" cy="14.5" r="0.8"/>
			<circle class="st3" cx="20.9" cy="50.8" r="0.8"/>
			<circle class="st3" cx="23.6" cy="34.1" r="0.8"/>
			<circle class="st3" cx="21.5" cy="12.4" r="1"/>
			<circle class="st3" cx="31.2" cy="23.6" r="0.8"/>
			<circle class="st3" cx="18.1" cy="37.8" r="0.8"/>
			<circle class="st3" cx="42.6" cy="37.3" r="0.8"/>
			<circle class="st3" cx="39.2" cy="40" r="0.8"/>
			<circle class="st3" cx="15.6" cy="16" r="0.8"/>
			<circle class="st3" cx="15.2" cy="26.5" r="1.2"/>
			<circle class="st3" cx="18.9" cy="33.1" r="1.2"/>
			<circle class="st3" cx="27.4" cy="40.5" r="1.2"/>
			<circle class="st3" cx="46.4" cy="46.2" r="1.2"/>
			<circle class="st3" cx="11.5" cy="39.3" r="1.3"/>
			<circle class="st3" cx="41.8" cy="22.5" r="1.3"/>
			<circle class="st3" cx="32.5" cy="44.9" r="1.3"/>
			<circle class="st3" cx="35.6" cy="29.8" r="0.9"/>
		</g>
	</g>
</g>
</svg>
